<?xml version="1.0" standalone="no"?>
<!DOCTYPE svg PUBLIC "-//W3C//DTD SVG 20010904//EN"
 "http://www.w3.org/TR/2001/REC-SVG-20010904/DTD/svg10.dtd">
<svg version="1.0" xmlns="http://www.w3.org/2000/svg"
 width="16.000000pt" height="16.000000pt" viewBox="0 0 16.000000 16.000000"
 preserveAspectRatio="xMidYMid meet">

<g transform="translate(0.000000,16.000000) scale(0.100000,-0.100000)"
fill="#000000" stroke="none">
<path d="M0 80 l0 -80 80 0 80 0 0 80 0 80 -80 0 -80 0 0 -80z m137 49 c23
-20 15 -39 -17 -39 -24 0 -30 4 -30 21 0 11 -4 17 -10 14 -13 -8 -13 -85 0
-85 6 0 10 7 10 15 0 10 10 15 30 15 35 0 41 -23 11 -40 -27 -14 -84 -13 -99
2 -7 7 -12 31 -12 55 0 36 4 45 23 53 25 11 74 5 94 -11z"/>
</g>
</svg>
